<?xml version="1.0" encoding="UTF-8"?>
<svg width="20px" height="20px" viewBox="0 0 20 20" version="1.1" xmlns="http://www.w3.org/2000/svg" xmlns:xlink="http://www.w3.org/1999/xlink">
    <title>horario</title>
    <g id="INTERNAS" stroke="none" stroke-width="1" fill="none" fill-rule="evenodd">
        <g id="A&amp;EM-Dinning-Detalle" transform="translate(-779.000000, -1626.000000)">
            <g id="Restaurante" transform="translate(340.000000, 1432.000000)">
                <g id="horario" transform="translate(439.000000, 194.000000)">
                    <circle id="Oval" fill="#EABC3C" cx="9.85866667" cy="9.98355556" r="7.54377778"></circle>
                    <path d="M9.90977778,-1.7408297e-14 C15.3746667,-1.7408297e-14 19.8204444,4.44577778 19.8204444,9.91044444 C19.8204444,15.3753333 15.3746667,19.8213333 9.90977778,19.8213333 C4.44577778,19.8213333 6.14619466e-14,15.3753333 6.14619466e-14,9.91044444 C6.14619466e-14,4.44577778 4.44577778,-1.7408297e-14 9.90977778,-1.7408297e-14 Z M9.90977778,1.11688889 C5.06133333,1.11688889 1.11688889,5.06177778 1.11688889,9.91044444 C1.11688889,14.7595556 5.06133333,18.7044444 9.90977778,18.7044444 C14.7586667,18.7044444 18.7035556,14.7595556 18.7035556,9.91044444 C18.7037778,5.06177778 14.7588889,1.11688889 9.90977778,1.11688889 Z M9.94066667,14.9366667 C10.2491111,14.9366667 10.4991111,15.1866667 10.4991111,15.4951111 L10.4991111,17.0908889 C10.4991111,17.3993333 10.2491111,17.6493333 9.94066667,17.6493333 C9.63222222,17.6493333 9.38222222,17.3993333 9.38222222,17.0908889 L9.38222222,15.4951111 C9.38222222,15.1866667 9.63222222,14.9366667 9.94066667,14.9366667 Z M6.49755556,13.6333333 C6.72488889,13.8417778 6.74066667,14.1946667 6.53222222,14.4222222 L5.47088889,15.5815556 C5.36088889,15.702 5.21022222,15.7628889 5.05888889,15.7628889 C4.92422222,15.7628889 4.78911111,15.7144444 4.682,15.6164444 C4.45466667,15.408 4.43888889,15.0551111 4.64733333,14.8275556 L5.70866667,13.6682222 C5.91711111,13.4406667 6.27,13.4253333 6.49755556,13.6333333 Z M14.4482222,13.2766667 L15.6084444,14.3368889 C15.836,14.5448889 15.852,14.898 15.644,15.1257778 C15.5335556,15.2462222 15.3826667,15.3073333 15.2315556,15.3073333 C15.0971111,15.3073333 14.962,15.2588889 14.8551111,15.1611111 L13.6946667,14.1008889 C13.4673333,13.8928889 13.4511111,13.5397778 13.6593333,13.312 C13.8675556,13.0842222 14.2204444,13.0684444 14.4482222,13.2766667 Z M9.94066667,2.16111111 C10.2491111,2.16111111 10.4991111,2.41111111 10.4991111,2.71955556 L10.4991111,9.35222222 L13.2575556,9.35222222 C13.5657778,9.35222222 13.8157778,9.60222222 13.8157778,9.91066667 C13.8157778,10.2191111 13.5657778,10.4688889 13.2575556,10.4688889 L9.94066667,10.4688889 C9.63222222,10.4688889 9.38222222,10.2188889 9.38222222,9.91044444 L9.38222222,2.71955556 C9.38222222,2.41111111 9.63222222,2.16111111 9.94066667,2.16111111 Z M4.28333333,9.352 C4.59177778,9.352 4.84177778,9.602 4.84177778,9.91044444 C4.84177778,10.2188889 4.59177778,10.4688889 4.28333333,10.4688889 L2.71155556,10.4688889 C2.40333333,10.4688889 2.15333333,10.2188889 2.15333333,9.91044444 C2.15333333,9.602 2.40333333,9.352 2.71155556,9.352 L4.28333333,9.352 Z M17.1091111,9.352 C17.4173333,9.352 17.6673333,9.602 17.6673333,9.91044444 C17.6673333,10.2188889 17.4173333,10.4688889 17.1091111,10.4688889 L15.538,10.4688889 C15.2297778,10.4688889 14.9797778,10.2188889 14.9797778,9.91044444 C14.9797778,9.602 15.2297778,9.352 15.538,9.352 L17.1091111,9.352 Z M4.98066667,4.62222222 L6.14111111,5.68288889 C6.36866667,5.89111111 6.38444444,6.244 6.17644444,6.47177778 C6.066,6.59222222 5.91555556,6.65333333 5.764,6.65333333 C5.62955556,6.65333333 5.49444444,6.60488889 5.38755556,6.50711111 L4.22711111,5.44644444 C3.99977778,5.23822222 3.98377778,4.88533333 4.192,4.65755556 C4.4,4.43022222 4.75311111,4.41422222 4.98066667,4.62222222 Z M15.1508889,4.166 C15.3786667,4.374 15.3946667,4.72688889 15.1864444,4.95466667 L14.126,6.11466667 C14.016,6.23533333 13.8651111,6.29666667 13.7137778,6.29666667 C13.5793333,6.29666667 13.4444444,6.24822222 13.3375556,6.15044444 C13.1097778,5.94244444 13.0937778,5.58955556 13.302,5.36177778 L14.362,4.20155556 C14.57,3.97377778 14.9231111,3.958 15.1508889,4.166 Z" id="Combined-Shape" fill="#111111" fill-rule="nonzero"></path>
                </g>
            </g>
        </g>
    </g>
</svg>